<svg xmlns="http://www.w3.org/2000/svg" width="1280" height="720" viewBox="0 0 1280 720" role="img" aria-labelledby="title desc">
  <title id="title">Executive Overview Placeholder</title>
  <desc id="desc">Placeholder layout for an executive KPI dashboard.</desc>
  <rect width="1280" height="720" fill="#f4efe6" />
  <rect x="40" y="32" width="1200" height="72" rx="18" fill="#17324d" />
  <text x="72" y="77" fill="#fefcf8" font-family="Arial, sans-serif" font-size="30" font-weight="700">Executive Overview Dashboard</text>
  <rect x="40" y="136" width="270" height="130" rx="20" fill="#fffaf2" stroke="#d8c9b4" />
  <rect x="335" y="136" width="270" height="130" rx="20" fill="#fffaf2" stroke="#d8c9b4" />
  <rect x="630" y="136" width="270" height="130" rx="20" fill="#fffaf2" stroke="#d8c9b4" />
  <rect x="925" y="136" width="315" height="130" rx="20" fill="#fffaf2" stroke="#d8c9b4" />
  <text x="72" y="180" fill="#6b5a46" font-family="Arial, sans-serif" font-size="18">KPI Card</text>
  <text x="365" y="180" fill="#6b5a46" font-family="Arial, sans-serif" font-size="18">KPI Card</text>
  <text x="660" y="180" fill="#6b5a46" font-family="Arial, sans-serif" font-size="18">KPI Card</text>
  <text x="955" y="180" fill="#6b5a46" font-family="Arial, sans-serif" font-size="18">KPI Card</text>
  <rect x="40" y="300" width="760" height="360" rx="22" fill="#fffaf2" stroke="#d8c9b4" />
  <rect x="830" y="300" width="410" height="170" rx="22" fill="#fffaf2" stroke="#d8c9b4" />
  <rect x="830" y="490" width="410" height="170" rx="22" fill="#fffaf2" stroke="#d8c9b4" />
  <text x="72" y="344" fill="#17324d" font-family="Arial, sans-serif" font-size="22" font-weight="700">Monthly Trend</text>
  <text x="862" y="344" fill="#17324d" font-family="Arial, sans-serif" font-size="22" font-weight="700">Top Segment Breakdown</text>
  <text x="862" y="534" fill="#17324d" font-family="Arial, sans-serif" font-size="22" font-weight="700">Priority Exceptions</text>
  <polyline points="88,585 210,540 332,560 454,470 576,430 698,360 780,390" fill="none" stroke="#cc6b2c" stroke-width="6" stroke-linecap="round" stroke-linejoin="round" />
  <line x1="88" y1="610" x2="770" y2="610" stroke="#c9bba8" stroke-width="2" />
  <line x1="88" y1="360" x2="88" y2="610" stroke="#c9bba8" stroke-width="2" />
</svg>

