<svg xmlns="http://www.w3.org/2000/svg" width="1280" height="720" viewBox="0 0 1280 720" role="img" aria-labelledby="title desc">
  <title id="title">Partner Engagement Placeholder</title>
  <desc id="desc">Placeholder layout for a partner engagement dashboard.</desc>
  <rect width="1280" height="720" fill="#f2f7f3" />
  <rect x="40" y="32" width="1200" height="72" rx="18" fill="#214f3d" />
  <text x="72" y="77" fill="#f8fffb" font-family="Arial, sans-serif" font-size="30" font-weight="700">Gym Partner Engagement View</text>
  <rect x="40" y="136" width="280" height="160" rx="20" fill="#fcfffd" stroke="#bfd5c7" />
  <rect x="340" y="136" width="420" height="160" rx="20" fill="#fcfffd" stroke="#bfd5c7" />
  <rect x="780" y="136" width="460" height="160" rx="20" fill="#fcfffd" stroke="#bfd5c7" />
  <text x="72" y="180" fill="#214f3d" font-family="Arial, sans-serif" font-size="22" font-weight="700">Filters</text>
  <text x="372" y="180" fill="#214f3d" font-family="Arial, sans-serif" font-size="22" font-weight="700">Engagement Trend</text>
  <text x="812" y="180" fill="#214f3d" font-family="Arial, sans-serif" font-size="22" font-weight="700">Partner Risk Summary</text>
  <rect x="40" y="326" width="760" height="334" rx="22" fill="#fcfffd" stroke="#bfd5c7" />
  <rect x="830" y="326" width="410" height="334" rx="22" fill="#fcfffd" stroke="#bfd5c7" />
  <text x="72" y="370" fill="#214f3d" font-family="Arial, sans-serif" font-size="22" font-weight="700">Partner Ranking Table</text>
  <text x="862" y="370" fill="#214f3d" font-family="Arial, sans-serif" font-size="22" font-weight="700">Action Panel</text>
  <line x1="80" y1="410" x2="780" y2="410" stroke="#cfe2d7" stroke-width="2" />
  <line x1="80" y1="460" x2="780" y2="460" stroke="#cfe2d7" stroke-width="2" />
  <line x1="80" y1="510" x2="780" y2="510" stroke="#cfe2d7" stroke-width="2" />
  <line x1="80" y1="560" x2="780" y2="560" stroke="#cfe2d7" stroke-width="2" />
  <line x1="80" y1="610" x2="780" y2="610" stroke="#cfe2d7" stroke-width="2" />
  <polyline points="375,260 450,220 525,235 600,195 675,175 740,205" fill="none" stroke="#2d8b5f" stroke-width="6" stroke-linecap="round" stroke-linejoin="round" />
</svg>

